<?xml version="1.0" encoding="utf-8"?>
<!-- Generator: Adobe Illustrator 27.2.0, SVG Export Plug-In . SVG Version: 6.00 Build 0)  -->
<svg version="1.1" id="Capa_1" xmlns="http://www.w3.org/2000/svg" xmlns:xlink="http://www.w3.org/1999/xlink" x="0px" y="0px"
	 viewBox="0 0 24 24" style="enable-background:new 0 0 24 24;" xml:space="preserve">
<style type="text/css">
	.st0{fill:#FFFFFF;}
</style>
<g>
	<path class="st0" d="M18.7,1.8h-0.5l-0.2-0.3V0.6c0-0.2-0.2-0.4-0.4-0.4H5.3c-0.2,0-0.4,0.2-0.4,0.4V18c0,0,0,0,0,0c0,0,0,0,0,0
		c0,0,0,0,0,0c0,0,0,0,0,0c0,0,0,0,0,0c0,0,0,0,0,0c0,0,0,0,0,0c0,0,0,0,0,0l1.2,1.6c0,0,0,0,0,0c0,0,0,0,0,0c0,0,0,0,0,0
		c0,0,0,0,0.1,0c0,0,0,0,0,0c0,0,0,0,0.1,0c0,0,0,0,0,0c0,0,0.1,0,0.1,0H8v3.4c0,0.2,0.1,0.3,0.3,0.4c0.2,0.1,0.4,0,0.5-0.1L9.5,23
		l0.7,0.8c0.1,0.1,0.2,0.1,0.3,0.1c0.1,0,0.1,0,0.2,0c0.2-0.1,0.3-0.2,0.3-0.4V20h7.7c0.2,0,0.4-0.2,0.4-0.4V2.2
		C19.1,2,18.9,1.8,18.7,1.8z M5.8,1H17v16.5h-6.5H8.4H5.8V1z M10.1,22.3L9.8,22c-0.1-0.1-0.2-0.1-0.3-0.1c-0.1,0-0.2,0-0.3,0.1
		l-0.3,0.3v-3.9h1.2V22.3z"/>
	<path class="st0" d="M8.6,8.7h1.6v4.9c0,0.2,0.2,0.4,0.4,0.4h1.5c0.2,0,0.4-0.2,0.4-0.4V8.7h1.6c0.2,0,0.4-0.2,0.4-0.4V6.8
		c0-0.2-0.2-0.4-0.4-0.4h-1.6V4.9c0-0.2-0.2-0.4-0.4-0.4h-1.5c-0.2,0-0.4,0.2-0.4,0.4v1.4H8.6c-0.2,0-0.4,0.2-0.4,0.4v1.5
		C8.2,8.5,8.4,8.7,8.6,8.7z M9,7.2h1.6c0.2,0,0.4-0.2,0.4-0.4V5.4h0.7v1.4c0,0.2,0.2,0.4,0.4,0.4h1.6v0.7h-1.6
		c-0.2,0-0.4,0.2-0.4,0.4v4.9h-0.7V8.3c0-0.2-0.2-0.4-0.4-0.4H9V7.2z"/>
	<path class="st0" d="M16.5,16.4V2.2c0-0.2-0.2-0.4-0.4-0.4H6.7c-0.2,0-0.4,0.2-0.4,0.4v14.2c0,0.2,0.2,0.4,0.4,0.4h9.4
		C16.3,16.8,16.5,16.6,16.5,16.4z M15.7,16H7.1V2.6h8.5V16z"/>
</g>
</svg>
